<svg width="27" height="28" viewBox="0 0 27 28" fill="none" xmlns="http://www.w3.org/2000/svg">
<path d="M2.29688 24.3142C2.29688 24.4907 2.367 24.66 2.49183 24.7848C2.61666 24.9097 2.78597 24.9798 2.9625 24.9798H15.2073C15.3839 24.9798 15.5532 24.9097 15.678 24.7848C15.8028 24.66 15.873 24.4907 15.873 24.3142V22.2015C15.873 21.192 15.0516 20.371 14.0425 20.371H13.7546V18.2769C13.7546 18.1004 13.6845 17.9311 13.5597 17.8063C13.4348 17.6814 13.2655 17.6113 13.089 17.6113H5.08052C4.90398 17.6113 4.73468 17.6814 4.60985 17.8063C4.48502 17.9311 4.41489 18.1004 4.41489 18.2769V20.371H4.12734C3.64204 20.3715 3.17676 20.5645 2.83359 20.9077C2.49043 21.2509 2.2974 21.7162 2.29688 22.2015V24.3142V24.3142ZM5.74614 18.9426H12.4234V20.371H5.74614V18.9426V18.9426ZM3.62813 22.2015C3.62813 21.9262 3.85211 21.7022 4.12734 21.7022H14.0425C14.3177 21.7022 14.5417 21.9262 14.5417 22.2015V23.6485H3.62813V22.2015V22.2015ZM23.6511 19.5889C23.9201 19.5762 24.1838 19.5102 24.4271 19.3948C24.6703 19.2794 24.8883 19.1169 25.0682 18.9166C25.4087 18.5401 25.5976 18.0507 25.5984 17.5431C25.598 17.2568 25.5378 16.9737 25.4219 16.7119C25.3059 16.4502 25.1366 16.2155 24.9248 16.0228L18.4053 10.1716L20.6951 7.63726C20.91 7.39855 21.0215 7.08437 21.0052 6.76358C20.9888 6.44279 20.846 6.14156 20.6079 5.92594L16.1935 1.93818C16.076 1.83049 15.9381 1.74746 15.788 1.69401C15.6379 1.64056 15.4786 1.61777 15.3195 1.627C15.1605 1.6346 15.0046 1.67366 14.8608 1.74193C14.717 1.8102 14.5882 1.90631 14.4818 2.02471L7.08072 10.2179C6.97362 10.3357 6.89097 10.4737 6.83756 10.6237C6.78414 10.7737 6.76103 10.9328 6.76954 11.0919C6.78618 11.415 6.9273 11.7125 7.16725 11.9295L11.582 15.9173C11.6998 16.0245 11.8377 16.1072 11.9878 16.1606C12.1378 16.214 12.297 16.2371 12.456 16.2285C12.6149 16.2208 12.7708 16.1817 12.9145 16.1133C13.0583 16.045 13.187 15.9489 13.2933 15.8304L15.6603 13.2105L22.1761 19.0614C22.3748 19.2425 22.6075 19.3825 22.8607 19.473C23.1139 19.5636 23.3826 19.6029 23.6511 19.5889V19.5889ZM15.1211 11.821C15.1195 11.8234 15.1171 11.8244 15.1155 11.8264C15.1138 11.8284 15.1128 11.8307 15.1112 11.8324L12.3858 14.8493L8.14872 11.022L15.3897 3.00584L19.6268 6.83319L15.1211 11.8217V11.821ZM16.5526 12.2224L17.5131 11.1594L24.0319 17.0103C24.1813 17.1464 24.2672 17.3404 24.2672 17.5431C24.2662 17.7269 24.1951 17.9035 24.0684 18.0367C23.9416 18.1699 23.7688 18.2496 23.5852 18.2596C23.3949 18.268 23.2089 18.2009 23.0677 18.0729L16.5526 12.2224V12.2224Z" fill="#A2A3A4"/>
</svg>
