<svg width="20" height="20" viewBox="0 0 20 20" fill="none" xmlns="http://www.w3.org/2000/svg">
<path d="M4.6057 7.09996C4.53737 7.16812 4.48315 7.24909 4.44617 7.33823C4.40918 7.42737 4.39014 7.52293 4.39014 7.61944C4.39014 7.71595 4.40918 7.81151 4.44617 7.90065C4.48315 7.98979 4.53737 8.07076 4.6057 8.13892L9.54219 13.0754C9.59649 13.1298 9.661 13.173 9.73201 13.2025C9.80301 13.2319 9.87914 13.2471 9.95601 13.2471C10.0329 13.2471 10.109 13.2319 10.18 13.2025C10.251 13.173 10.3155 13.1298 10.3698 13.0754L15.3063 8.13892C15.5939 7.8513 15.5939 7.38758 15.3063 7.09996C15.0187 6.81234 14.555 6.81234 14.2674 7.09996L9.95895 11.4084L5.64465 7.09409C5.35703 6.81234 4.89332 6.81234 4.6057 7.09996Z" fill="white"/>
</svg>
