<svg width="46" height="46" viewBox="0 0 46 46" fill="none" xmlns="http://www.w3.org/2000/svg">
<rect y="0.640625" width="45.0445" height="45.0445" rx="22.5223" fill="#4A4F5B"/>
<g clip-path="url(#clip0_46804_3084)">
<path d="M34.0305 25.7244C32.3891 32.3091 25.7177 36.3119 19.1425 34.6704C12.5576 33.029 8.55483 26.358 10.1963 19.7828C11.8377 13.1981 18.4993 9.19533 25.0842 10.8368C31.6595 12.4686 35.6719 19.1396 34.0305 25.7244Z" fill="url(#paint0_linear_46804_3084)"/>
<path d="M27.9623 21.2226C28.2022 19.591 26.9641 18.7081 25.2558 18.1226L25.8124 15.9056L24.4688 15.5697L23.9313 17.7291C23.5762 17.6427 23.2115 17.5564 22.8468 17.4796L23.3842 15.3105L22.0406 14.9746L21.4935 17.182C21.196 17.1149 20.9081 17.0477 20.6297 16.9805V16.9709L18.7678 16.5102L18.4127 17.9498C18.4127 17.9498 19.4109 18.1802 19.3917 18.1898C19.9387 18.3242 20.0347 18.6889 20.0155 18.9768L19.3821 21.5009C19.4205 21.5105 19.4684 21.5201 19.526 21.5489C19.478 21.5393 19.4301 21.5297 19.3821 21.5105L18.4991 25.0424C18.4319 25.2056 18.2592 25.4551 17.8848 25.3592C17.8944 25.3784 16.9059 25.1192 16.9059 25.1192L16.2341 26.6644L17.9904 27.1059C18.3167 27.1923 18.6335 27.2691 18.9502 27.3554L18.3935 29.5917L19.7372 29.9276L20.2938 27.7106C20.6585 27.8065 21.0232 27.9025 21.3688 27.9889L20.8217 30.1963L22.1654 30.5322L22.722 28.296C25.0254 28.7279 26.753 28.5551 27.4728 26.4725C28.0583 24.8025 27.444 23.8331 26.2347 23.1997C27.1273 22.9982 27.7895 22.4127 27.9623 21.2226ZM24.8815 25.5415C24.4688 27.2115 21.6471 26.3093 20.7353 26.079L21.4743 23.1133C22.3861 23.3437 25.3229 23.7948 24.8815 25.5415ZM25.3038 21.1938C24.9199 22.7198 22.5781 21.9424 21.8198 21.7505L22.4917 19.0632C23.2499 19.2551 25.6973 19.6102 25.3038 21.1938Z" fill="white"/>
</g>
<defs>
<linearGradient id="paint0_linear_46804_3084" x1="22.1065" y1="10.4629" x2="22.1065" y2="35.036" gradientUnits="userSpaceOnUse">
<stop stop-color="#F9AA4B"/>
<stop offset="1" stop-color="#F7931A"/>
</linearGradient>
<clipPath id="clip0_46804_3084">
<rect width="24.5697" height="24.5697" fill="white" transform="translate(9.82812 10.4688)"/>
</clipPath>
</defs>
</svg>
