<svg width="27" height="27" viewBox="0 0 27 27" fill="none" xmlns="http://www.w3.org/2000/svg">
<path d="M23.0943 11.7454L23.0891 11.7246L20.1718 4.31172C20.0418 3.8931 19.6543 3.60449 19.2149 3.60449H7.38968C6.94766 3.60449 6.55505 3.8983 6.43024 4.32212L3.70274 11.6596L3.69494 11.6778L3.68974 11.6986C3.65594 11.826 3.64554 11.956 3.66374 12.0834C3.66114 12.125 3.65854 12.1666 3.65854 12.2082V21.722C3.65923 22.141 3.826 22.5427 4.12232 22.839C4.41864 23.1354 4.82034 23.3021 5.2394 23.3028H21.5472C22.4182 23.3028 23.1281 22.593 23.1307 21.722V12.2082C23.1307 12.1744 23.1307 12.1406 23.1281 12.112C23.1385 11.9846 23.1281 11.8624 23.0943 11.7454ZM15.4032 10.6274L15.3954 11.0356C15.3746 12.203 14.5685 12.9882 13.3907 12.9882C12.8161 12.9882 12.3221 12.8036 11.9659 12.4526C11.6096 12.1016 11.4146 11.6128 11.4042 11.0356L11.3964 10.6274H6.04543L8.11251 5.60137H18.4921L20.6164 10.6274H15.4032ZM5.65281 12.6242H9.74277C10.3746 14.1089 11.7188 14.9851 13.3933 14.9851C14.2695 14.9851 15.0834 14.7407 15.7412 14.2779C16.3184 13.8723 16.7682 13.3055 17.0594 12.6242H21.1286V21.306H5.65281V12.6242Z" fill="#A2A3A4"/>
<circle cx="19.4918" cy="5.13281" r="3.88281" fill="#F8961C"/>
</svg>
